<svg width="512" height="512" viewBox="0 0 512 512" fill="none" xmlns="http://www.w3.org/2000/svg">
<mask id="mask0_13_25" style="mask-type:alpha" maskUnits="userSpaceOnUse" x="0" y="0" width="512" height="512">
<path fill-rule="evenodd" clip-rule="evenodd" d="M512 351.837C512 357.959 512 364.07 511.955 370.181C511.922 375.335 511.866 380.488 511.733 385.631C511.591 396.898 510.601 408.139 508.772 419.257C506.869 430.388 503.318 441.163 498.232 451.236C487.922 471.477 471.467 487.932 451.228 498.242C441.159 503.322 430.389 506.871 419.272 508.772C408.142 510.609 396.9 511.599 385.636 511.733C380.487 511.866 375.337 511.944 370.187 511.967C364.065 512 357.955 512 351.844 512H160.156C154.045 512 147.935 512 141.813 511.967C136.663 511.947 131.513 511.873 126.364 511.744C115.093 511.6 103.849 510.607 92.7277 508.772C81.6084 506.88 70.8341 503.318 60.7722 498.242C40.5348 487.934 24.0806 471.483 13.7683 451.247C8.6833 441.168 5.13067 430.386 3.22783 419.257C1.39865 408.142 0.408951 396.905 0.26713 385.642C0.133565 380.488 0.0667826 375.335 0.0445217 370.181C0 364.059 0 357.959 0 351.837V160.163C0 154.041 0 147.919 0.0445217 141.797C0.0667826 136.654 0.133565 131.501 0.26713 126.358C0.409119 115.095 1.39881 103.858 3.22783 92.7428C5.13113 81.6119 8.68174 70.8372 13.7683 60.7526C24.0781 40.5122 40.5327 24.0569 60.7722 13.7467C70.8382 8.66945 81.6045 5.12053 92.7165 3.21684C103.847 1.39136 115.089 0.400713 126.353 0.256011C131.506 0.12244 136.659 0.0556546 141.802 0.0333928C147.923 0 154.045 0 160.145 0H351.833C357.955 0 364.077 0 370.187 0.0333928C375.337 0.0525196 380.487 0.12673 385.636 0.256011C396.9 0.400713 408.142 1.39136 419.261 3.21684C430.392 5.12022 441.155 8.67099 451.228 13.7467C471.472 24.0537 487.931 40.5096 498.243 60.7526C503.324 70.8292 506.872 81.6076 508.772 92.7317C510.602 103.85 511.591 115.091 511.733 126.358C511.866 131.512 511.933 136.665 511.955 141.808C512 147.93 512 154.041 512 160.152V351.837Z" fill="white"/>
</mask>
<g mask="url(#mask0_13_25)">
<path d="M256.084 0C149.206 0 117.948 0.110286 111.872 0.614452C89.9393 2.43811 76.2912 5.89244 61.4223 13.2974C49.9636 18.9889 40.9265 25.5864 32.0075 34.8347C15.7644 51.7006 5.92014 72.4502 2.35651 97.1149C0.62391 109.089 0.119882 111.531 0.017501 172.693C-0.0218762 193.08 0.017501 219.911 0.017501 255.9C0.017501 362.72 0.135633 393.954 0.647536 400.02C2.41951 421.368 5.76657 434.8 12.8545 449.491C26.4002 477.614 52.2711 498.726 82.749 506.604C93.3021 509.322 104.958 510.818 119.921 511.527C126.261 511.803 190.879 512 255.536 512C320.194 512 384.851 511.921 391.033 511.606C408.359 510.791 418.42 509.44 429.544 506.564C460.219 498.647 485.617 477.851 499.439 449.334C506.389 434.997 509.913 421.053 511.508 400.82C511.854 396.408 512 326.073 512 255.833C512 185.58 511.843 115.375 511.496 110.964C509.882 90.4032 506.357 76.5781 499.183 61.9651C493.296 50.003 486.759 41.0698 477.269 31.9357C460.333 15.7552 439.621 5.90819 414.939 2.34752C402.98 0.618391 400.598 0.106347 339.406 0H256.084Z" fill="url(#paint0_radial_13_25)"/>
<path d="M256.084 0C149.206 0 117.948 0.110286 111.872 0.614452C89.9393 2.43811 76.2912 5.89244 61.4223 13.2974C49.9636 18.9889 40.9265 25.5864 32.0075 34.8347C15.7644 51.7006 5.92014 72.4502 2.35651 97.1149C0.62391 109.089 0.119882 111.531 0.017501 172.693C-0.0218762 193.08 0.017501 219.911 0.017501 255.9C0.017501 362.72 0.135633 393.954 0.647536 400.02C2.41951 421.368 5.76657 434.8 12.8545 449.491C26.4002 477.614 52.2711 498.726 82.749 506.604C93.3021 509.322 104.958 510.818 119.921 511.527C126.261 511.803 190.879 512 255.536 512C320.194 512 384.851 511.921 391.033 511.606C408.359 510.791 418.42 509.44 429.544 506.564C460.219 498.647 485.617 477.851 499.439 449.334C506.389 434.997 509.913 421.053 511.508 400.82C511.854 396.408 512 326.073 512 255.833C512 185.58 511.843 115.375 511.496 110.964C509.882 90.4032 506.357 76.5781 499.183 61.9651C493.296 50.003 486.759 41.0698 477.269 31.9357C460.333 15.7552 439.621 5.90819 414.939 2.34752C402.98 0.618391 400.598 0.106347 339.406 0H256.084Z" fill="url(#paint1_radial_13_25)"/>
<path d="M182.264 415H329.737C353.428 415 366 402.074 366 376.546V265.225C366 239.696 353.428 226.933 329.737 226.933H182.264C158.571 226.933 146 239.696 146 265.225V376.546C146 402.074 158.571 415 182.264 415Z" fill="white"/>
<path d="M199.831 239.373H174.205V188.317C174.205 127.567 213.853 98 255.919 98C298.146 98 337.795 127.567 337.795 188.317V239.373H312.33V184.763C312.33 144.047 286.059 122.397 255.919 122.397C225.78 122.397 199.831 144.047 199.831 184.763V239.373Z" fill="white"/>
</g>
<defs>
<radialGradient id="paint0_radial_13_25" cx="0" cy="0" r="1" gradientUnits="userSpaceOnUse" gradientTransform="translate(136.001 551.435) rotate(-90) scale(507.43 471.95)">
<stop stop-color="#FFDD55"/>
<stop offset="0.1" stop-color="#FFDD55"/>
<stop offset="0.5" stop-color="#FF543E"/>
<stop offset="1" stop-color="#C837AB"/>
</radialGradient>
<radialGradient id="paint1_radial_13_25" cx="0" cy="0" r="1" gradientUnits="userSpaceOnUse" gradientTransform="translate(-85.7627 36.8836) rotate(78.6806) scale(226.823 934.975)">
<stop stop-color="#3771C8"/>
<stop offset="0.128" stop-color="#3771C8"/>
<stop offset="1" stop-color="#6600FF" stop-opacity="0"/>
</radialGradient>
</defs>
</svg>
